<?xml version="1.0" encoding="UTF-8" standalone="no"?>
<!-- Generator: Adobe Illustrator 12.0.0, SVG Export Plug-In . SVG Version: 6.00 Build 51448)  -->

<svg
   xmlns:dc="http://purl.org/dc/elements/1.1/"
   xmlns:cc="http://creativecommons.org/ns#"
   xmlns:rdf="http://www.w3.org/1999/02/22-rdf-syntax-ns#"
   xmlns:svg="http://www.w3.org/2000/svg"
   xmlns="http://www.w3.org/2000/svg"
   xmlns:sodipodi="http://sodipodi.sourceforge.net/DTD/sodipodi-0.dtd"
   xmlns:inkscape="http://www.inkscape.org/namespaces/inkscape"
   id="Layer_1"
   space="preserve"
   sodipodi:docname="image_missing.svg"
   viewBox="0 0 640.00002 480"
   sodipodi:version="0.32"
   version="1.1"
   inkscape:output_extension="org.inkscape.output.svg.inkscape"
   inkscape:version="0.92.1 r15371"
   width="640"
   height="480">
  <defs
     id="defs19" />
  <sodipodi:namedview
     id="base"
     bordercolor="#666666"
     inkscape:pageshadow="2"
     inkscape:window-width="1920"
     pagecolor="#ffffff"
     inkscape:zoom="0.7071068"
     inkscape:window-x="-8"
     showgrid="false"
     borderopacity="1.0"
     inkscape:current-layer="g3329"
     inkscape:cx="227.35137"
     inkscape:cy="-5.4352595"
     inkscape:window-y="-8"
     inkscape:window-height="1147"
     inkscape:pageopacity="0.0"
     inkscape:window-maximized="1"
     inkscape:snap-global="false" />
  <metadata
     id="metadata16">
    <rdf:RDF>
      <cc:Work>
        <dc:format>image/svg+xml</dc:format>
        <dc:type
           rdf:resource="http://purl.org/dc/dcmitype/StillImage" />
        <cc:license
           rdf:resource="http://creativecommons.org/publicdomain/zero/1.0/" />
        <dc:publisher>
          <cc:Agent
             rdf:about="http://openclipart.org/">
            <dc:title>Openclipart</dc:title>
          </cc:Agent>
        </dc:publisher>
        <dc:title>pictogram restaurant</dc:title>
        <dc:date>2008-08-12T16:58:21</dc:date>
        <dc:description />
        <dc:source>https://openclipart.org/detail/18397/pictogram-restaurant-by-geant</dc:source>
        <dc:creator>
          <cc:Agent>
            <dc:title>geant</dc:title>
          </cc:Agent>
        </dc:creator>
        <dc:subject>
          <rdf:Bag>
            <rdf:li>pictogram</rdf:li>
            <rdf:li>restaurant</rdf:li>
            <rdf:li>symbol</rdf:li>
          </rdf:Bag>
        </dc:subject>
      </cc:Work>
      <cc:License
         rdf:about="http://creativecommons.org/publicdomain/zero/1.0/">
        <cc:permits
           rdf:resource="http://creativecommons.org/ns#Reproduction" />
        <cc:permits
           rdf:resource="http://creativecommons.org/ns#Distribution" />
        <cc:permits
           rdf:resource="http://creativecommons.org/ns#DerivativeWorks" />
      </cc:License>
    </rdf:RDF>
  </metadata>
  <g
     id="g3329"
     transform="matrix(5.8589844,0,0,5.8636897,-836.44394,-687.2619)"
     style="stroke-width:0.17060955">
    <rect
       style="opacity:1;vector-effect:none;fill:#ffffff;fill-opacity:1;stroke:none;stroke-width:1.12715137;stroke-linecap:round;stroke-linejoin:bevel;stroke-miterlimit:4;stroke-dasharray:none;stroke-dashoffset:0;stroke-opacity:1;marker:none"
       id="rect828"
       width="122.20311"
       height="87.066528"
       x="137.08684"
       y="113.92902" />
    <path
       inkscape:connector-curvature="0"
       d="m 198.9596,132.75863 c -13.99663,0 -25.3956,11.37831 -25.3956,25.37536 0,13.99688 11.39897,25.39838 25.3956,25.39838 14.00817,0 25.41884,-11.4015 25.41884,-25.39838 0,-13.99705 -11.41067,-25.37536 -25.41884,-25.37536 z"
       style="fill:#000000;stroke-width:0.17060956"
       sodipodi:nodetypes="csssc"
       id="path832" />
    <path
       id="path3212"
       style="fill:none;stroke:#000000;stroke-width:0.72930473"
       d="m 160.55609,121.82444 h 74.68219 c 4.40689,0 7.94627,2.6314 7.94627,5.8997 v 55.44026 c 0,3.26622 -3.53938,5.89903 -7.94627,5.89903 h -74.68219 c -4.40681,0 -7.94619,-2.63281 -7.94619,-5.89903 v -55.44026 c 0,-3.2683 3.53938,-5.8997 7.94619,-5.8997 z"
       inkscape:connector-curvature="0" />
    <path
       id="rect3214"
       sodipodi:nodetypes="cccccccccccccccc"
       style="fill:#000000;stroke-width:0.17060959"
       d="m 161.78303,132.60992 c 0.20499,-0.72711 1.25687,-0.90022 1.21454,-0.0697 l 0.55594,9.02305 c -0.0602,0.44324 0.58607,0.65888 0.55586,0 l 0.55594,-9.02305 c 0.10249,-0.60553 1.02723,-0.67503 1.11184,0 l 0.5559,9.02305 c 0,0.56299 0.49544,0.63486 0.54984,0 l 0.55594,-9.02305 c 0.0664,-0.69238 0.94864,-0.65764 1.11179,0 l 0.5559,9.02305 c -0.0726,0.62888 0.61632,0.60494 0.55594,0 l 0.5559,-9.02305 c 0.13278,-0.67142 0.93657,-0.53063 1.1118,0 2.22745,28.03264 -12.61853,23.19599 -9.54713,0.0693 z"
       inkscape:connector-curvature="0" />
    <g
       id="g3228"
       transform="matrix(0.60424905,0,0,0.59894816,217.08392,121.84382)"
       style="stroke-width:0.28359643">
      <path
         id="rect3216"
         sodipodi:nodetypes="ccccc"
         style="fill:#000000;stroke-width:0.28359643"
         d="m -86.113,35.515 h 5.343 v 62.612 c 0.209,3.583 -5.341,3.583 -5.343,0 z"
         inkscape:connector-curvature="0" />
      <path
         id="rect3222"
         sodipodi:nodetypes="ccccccccc"
         style="fill:#000000;stroke-width:0.28359643"
         d="m -84.549,71.113 h 2.221 c 1.649,0 2.977,1.328 2.977,2.977 v 23.814 c 0,1.649 -1.328,2.976 -2.977,2.976 h -2.221 c -1.649,0 -2.977,-1.327 -2.977,-2.976 V 74.09 c 0.51,-2.71 1.328,-2.977 2.977,-2.977 z"
         inkscape:connector-curvature="0" />
    </g>
    <g
       id="g3239"
       transform="matrix(0.86748962,0,0,0.85987945,258.52423,108.2859)"
       style="stroke-width:0.19753879">
      <rect
         id="rect3226"
         style="fill:#000000;stroke-width:0.19753879"
         ry="0.59039283"
         height="20.734871"
         width="5.6942883"
         y="66.229385"
         x="-32.732338"
         rx="0.58568352" />
      <g
         id="g3235"
         transform="matrix(0.69654899,0,0,0.69654899,-10.879278,17.223791)"
         style="stroke-width:0.28359643">
        <path
           id="path3220"
           sodipodi:nodetypes="ccccc"
           style="fill:#000000;stroke-width:0.28359643"
           d="m -29.918,28.396 h 5.343 v 68.71 c 0.209,3.934 -5.341,3.934 -5.343,0 z"
           inkscape:connector-curvature="0" />
        <path
           id="rect3232"
           sodipodi:nodetypes="cccccccc"
           style="fill:#000000;stroke-width:0.28359643"
           d="m -26.214,11.326 c 0.911,0 1.644,0.734 1.644,1.645 v 37.85 c 0,0.911 -0.733,1.644 -1.644,1.644 h -6.605 c -0.911,0 -1.645,-0.733 -1.645,-1.644 V 22.917 c 0,-10.068 8.25,-11.591 8.25,-11.591 z"
           inkscape:connector-curvature="0" />
      </g>
    </g>
    <path
       inkscape:connector-curvature="0"
       d="m 198.96313,140.45428 c -9.75376,0 -17.6973,7.92914 -17.6973,17.68319 0,9.75393 7.94354,17.69921 17.6973,17.69921 9.76177,0 17.71348,-7.94528 17.71348,-17.69921 0,-9.75405 -7.95171,-17.68319 -17.71348,-17.68319 z"
       style="fill:#ffffff;fill-opacity:1;stroke-width:0.17060956"
       sodipodi:nodetypes="csssc"
       id="path830" />
    <path
       id="path3251"
       sodipodi:nodetypes="csssc"
       style="fill:#000000;stroke-width:0.17060956"
       d="m 198.96392,142.13496 c -8.82716,0 -16.01608,7.17585 -16.01608,16.00326 0,8.82732 7.18892,16.01782 16.01608,16.01782 8.83437,0 16.03068,-7.1905 16.03068,-16.01782 0,-8.82741 -7.19631,-16.00326 -16.03068,-16.00326 z"
       inkscape:connector-curvature="0" />
  </g>
</svg>
